<?xml version="1.0" standalone="no"?>
<!DOCTYPE svg PUBLIC "-//W3C//DTD SVG 20010904//EN"
 "http://www.w3.org/TR/2001/REC-SVG-20010904/DTD/svg10.dtd">
<svg version="1.0" xmlns="http://www.w3.org/2000/svg"
 width="1024.000000pt" height="1024.000000pt" viewBox="0 0 1024.000000 1024.000000"
 preserveAspectRatio="xMidYMid meet">
<metadata>
Created by potrace 1.14, written by Peter Selinger 2001-2017
</metadata>
<g transform="translate(0.000000,1024.000000) scale(0.100000,-0.100000)"
fill="#000000" stroke="none">
<path d="M6490 9860 c-46 -46 -90 -115 -90 -140 0 -6 -7 -18 -15 -26 -8 -9
-15 -24 -15 -33 0 -10 -6 -24 -14 -30 -8 -7 -18 -25 -21 -41 -3 -16 -13 -31
-21 -34 -8 -3 -14 -14 -14 -25 0 -11 -7 -26 -15 -35 -8 -8 -15 -19 -15 -25 0
-5 -16 -40 -35 -78 -19 -37 -35 -74 -35 -80 0 -7 -4 -13 -8 -13 -4 0 -21 -28
-37 -62 -16 -35 -39 -80 -52 -100 -13 -21 -23 -44 -23 -52 0 -8 -6 -19 -13
-23 -7 -4 -28 -39 -46 -76 -19 -37 -38 -70 -43 -73 -4 -3 -8 -12 -8 -20 0 -9
-7 -22 -15 -30 -8 -9 -15 -26 -15 -39 0 -12 -6 -25 -13 -28 -13 -5 -67 -100
-67 -119 0 -5 -7 -16 -15 -24 -8 -9 -15 -24 -15 -35 0 -10 -4 -19 -10 -19 -5
0 -12 -16 -16 -35 -3 -19 -10 -35 -15 -35 -8 0 -59 -95 -59 -112 0 -5 -7 -16
-15 -24 -8 -9 -15 -24 -15 -35 0 -10 -4 -19 -10 -19 -5 0 -12 -16 -16 -35 -3
-19 -9 -35 -13 -35 -12 0 -121 -226 -121 -251 0 -10 -4 -19 -9 -19 -5 0 -22
-33 -36 -72 -15 -40 -36 -92 -46 -115 -11 -23 -19 -49 -19 -57 0 -9 -4 -16
-10 -16 -5 0 -10 -9 -10 -20 0 -11 -9 -28 -20 -37 -11 -10 -20 -23 -20 -30 0
-6 -16 -42 -35 -80 -19 -37 -35 -76 -35 -85 0 -10 -4 -18 -9 -18 -5 0 -12 -13
-16 -30 -4 -16 -10 -30 -15 -30 -5 0 -14 -16 -21 -35 -7 -19 -17 -35 -21 -35
-4 0 -8 -6 -8 -13 0 -7 -9 -29 -20 -50 -11 -20 -20 -44 -20 -52 0 -8 -4 -15
-10 -15 -5 0 -13 -12 -16 -27 -4 -16 -16 -44 -27 -63 -49 -86 -117 -231 -117
-248 0 -7 -9 -21 -20 -32 -11 -11 -20 -29 -20 -40 0 -11 -4 -20 -10 -20 -10 0
-50 -80 -50 -99 0 -6 -4 -11 -10 -11 -5 0 -10 -8 -11 -17 0 -10 -14 -40 -30
-68 -16 -27 -32 -57 -35 -65 -23 -57 -50 -110 -56 -110 -5 0 -8 -6 -8 -14 0
-8 -27 -65 -60 -128 -33 -63 -67 -134 -75 -158 -9 -24 -22 -51 -29 -60 -8 -8
-18 -27 -21 -42 -4 -16 -11 -28 -15 -28 -5 0 -11 -13 -15 -30 -4 -16 -11 -30
-16 -30 -5 0 -9 -7 -9 -15 0 -9 -19 -51 -42 -93 -23 -42 -55 -104 -72 -137
-16 -33 -33 -61 -38 -63 -4 -2 -8 -9 -8 -16 0 -7 -22 -57 -49 -112 -27 -54
-63 -128 -80 -164 -17 -36 -36 -72 -41 -80 -17 -27 -110 -228 -110 -239 0 -6
-4 -11 -9 -11 -5 0 -14 -15 -22 -32 -7 -18 -16 -35 -19 -38 -3 -3 -17 -29 -30
-57 -14 -29 -28 -53 -32 -53 -5 0 -8 -7 -8 -16 0 -8 -12 -36 -27 -62 -14 -26
-39 -74 -55 -107 -16 -33 -46 -91 -65 -130 -20 -38 -58 -115 -85 -170 -26 -55
-52 -107 -58 -115 -21 -35 -90 -177 -90 -188 0 -7 -4 -12 -9 -12 -5 0 -12 -12
-15 -26 -4 -14 -16 -35 -26 -47 -11 -11 -20 -29 -20 -39 0 -10 -4 -18 -10 -18
-5 0 -13 -12 -16 -27 -4 -15 -13 -34 -21 -41 -7 -7 -13 -24 -13 -37 0 -12 -7
-25 -15 -29 -8 -3 -15 -15 -15 -27 0 -11 -9 -28 -19 -37 -10 -10 -38 -55 -61
-102 -23 -47 -46 -92 -51 -100 -5 -8 -17 -28 -27 -43 -9 -16 -25 -38 -34 -49
-10 -12 -18 -30 -18 -40 0 -10 -11 -29 -24 -41 -13 -12 -27 -32 -31 -45 -4
-13 -19 -36 -34 -50 -15 -15 -32 -38 -39 -52 -15 -31 -33 -60 -49 -78 -7 -7
-13 -19 -13 -27 0 -7 -4 -15 -8 -17 -11 -4 -92 -127 -92 -139 0 -5 -5 -9 -10
-9 -6 0 -18 -17 -28 -38 -9 -20 -27 -46 -38 -57 -12 -11 -32 -40 -44 -64 -12
-24 -32 -53 -44 -65 -13 -11 -31 -34 -40 -51 -22 -40 -40 -69 -47 -75 -3 -3
-16 -23 -29 -45 -13 -22 -39 -56 -57 -75 -18 -19 -33 -39 -33 -43 0 -9 -140
-206 -171 -242 -10 -11 -21 -32 -24 -47 -4 -16 -13 -28 -21 -28 -8 0 -14 -4
-14 -8 0 -5 -13 -24 -30 -42 -16 -18 -30 -39 -30 -45 0 -6 -13 -26 -30 -44
-16 -19 -42 -52 -57 -75 -15 -22 -34 -47 -41 -54 -6 -7 -12 -18 -12 -23 0 -6
-10 -20 -23 -32 -26 -25 -77 -93 -77 -102 0 -3 -10 -16 -23 -28 -12 -12 -28
-34 -35 -48 -8 -14 -29 -43 -48 -64 -19 -21 -34 -42 -34 -46 0 -5 -14 -22 -30
-39 -17 -17 -30 -36 -30 -42 0 -6 -12 -23 -28 -37 -42 -40 -102 -117 -102
-130 0 -6 -5 -11 -11 -11 -6 0 -35 -26 -65 -57 -29 -32 -57 -61 -61 -65 -12
-12 -101 -100 -125 -126 -13 -12 -28 -22 -34 -22 -6 0 -32 -22 -57 -49 -25
-26 -51 -51 -59 -55 -44 -22 -109 -67 -143 -98 -16 -16 -39 -31 -50 -34 -11
-4 -30 -17 -42 -30 -12 -13 -33 -26 -47 -30 -14 -3 -30 -12 -37 -20 -6 -8 -18
-14 -25 -14 -7 0 -28 -9 -46 -20 -38 -23 -78 -26 -110 -7 -21 11 -29 17 -60
43 -7 5 -21 13 -31 17 -17 6 -18 20 -11 209 4 112 10 208 14 213 4 6 10 71 13
145 4 77 11 136 17 138 5 2 10 17 10 33 0 16 5 38 10 49 6 11 14 28 19 39 5
10 12 39 16 65 4 25 11 46 15 46 5 0 11 24 15 53 4 28 11 57 17 64 5 6 12 50
15 97 3 48 10 89 15 92 4 3 8 24 9 47 0 44 19 145 30 162 4 6 10 35 14 65 4
30 10 60 14 65 3 6 11 35 18 65 24 116 65 267 83 305 11 22 22 58 26 80 4 22
10 45 14 50 4 6 11 26 15 45 4 19 11 40 15 45 4 6 11 25 15 43 3 17 11 32 16
32 5 0 9 10 9 22 0 19 8 41 55 143 8 17 17 45 21 64 3 19 13 41 20 49 8 7 14
24 14 38 0 13 5 24 10 24 6 0 10 6 10 14 0 12 12 41 60 151 5 11 25 61 45 110
42 104 48 121 63 155 6 14 14 35 17 48 4 12 10 22 15 22 4 0 11 16 15 36 3 20
10 44 15 53 16 29 80 170 80 176 0 3 9 27 21 53 11 26 25 58 31 72 5 14 16 39
24 55 7 17 24 57 38 90 13 33 31 74 40 90 9 17 16 36 16 43 0 7 4 20 9 30 6 9
24 46 41 82 17 36 41 85 54 110 56 105 59 115 64 208 l4 94 -38 39 c-36 37
-42 39 -96 39 -55 0 -61 -3 -103 -42 -29 -28 -45 -51 -45 -67 0 -13 -31 -87
-69 -165 -37 -77 -74 -157 -81 -176 -7 -19 -17 -39 -22 -44 -4 -6 -8 -20 -8
-33 0 -13 -4 -23 -10 -23 -5 0 -13 -18 -16 -40 -4 -22 -10 -40 -15 -40 -4 0
-13 -16 -20 -35 -7 -19 -16 -35 -20 -35 -4 0 -10 -17 -14 -37 -4 -20 -13 -46
-21 -57 -8 -11 -14 -31 -14 -43 0 -13 -4 -23 -9 -23 -5 0 -12 -14 -16 -30 -4
-17 -19 -52 -33 -78 -26 -46 -58 -124 -69 -170 -3 -12 -9 -22 -14 -22 -4 0
-11 -17 -15 -38 -4 -20 -10 -39 -13 -42 -4 -3 -19 -34 -35 -70 -15 -36 -33
-78 -41 -95 -35 -81 -45 -107 -45 -118 0 -7 -11 -33 -25 -59 -14 -26 -25 -54
-25 -63 0 -8 -4 -15 -10 -15 -5 0 -10 -8 -10 -17 0 -10 -6 -30 -14 -44 -7 -14
-16 -42 -20 -62 -4 -21 -11 -37 -16 -37 -6 0 -13 -18 -16 -40 -4 -22 -10 -40
-15 -40 -4 0 -13 -17 -20 -37 -6 -21 -15 -42 -19 -48 -4 -5 -11 -26 -15 -45
-4 -19 -11 -39 -15 -45 -4 -5 -11 -26 -15 -45 -4 -19 -11 -39 -15 -45 -4 -5
-10 -30 -14 -55 -4 -24 -10 -49 -15 -55 -4 -5 -13 -30 -20 -55 -7 -25 -16 -52
-21 -60 -4 -9 -11 -36 -15 -60 -4 -25 -11 -49 -15 -55 -4 -5 -12 -35 -18 -65
-6 -30 -18 -84 -27 -120 -32 -127 -57 -262 -76 -410 -6 -47 -15 -89 -19 -95
-4 -5 -11 -36 -15 -68 -4 -31 -11 -59 -15 -62 -5 -3 -11 -24 -15 -48 -4 -23
-11 -47 -16 -53 -25 -31 -58 -235 -58 -361 -1 -46 -5 -83 -9 -83 -5 0 -12 -93
-15 -207 -4 -126 -11 -209 -17 -211 -5 -2 -10 -35 -10 -73 0 -62 4 -76 31
-117 41 -62 155 -156 254 -212 61 -34 315 -27 345 11 3 3 22 9 43 13 20 4 37
11 37 16 0 4 14 11 30 15 17 4 30 11 30 16 0 5 7 9 16 9 9 0 32 16 51 35 19
19 39 35 43 35 5 0 37 22 72 48 35 27 88 66 118 87 30 20 77 59 103 86 27 27
63 59 80 71 37 26 220 209 257 256 14 18 52 61 86 95 34 34 64 71 68 82 3 11
23 39 44 61 20 23 48 56 62 73 14 18 33 42 42 53 10 12 18 26 18 33 0 6 12 22
26 36 25 23 84 104 84 115 0 3 13 19 30 37 16 18 30 35 30 39 0 4 6 13 13 20
7 7 23 30 36 51 13 21 37 53 52 70 16 17 32 40 35 49 3 10 19 33 35 50 16 18
29 36 29 41 0 9 17 31 48 59 12 12 22 26 22 32 0 6 14 26 30 45 17 18 30 39
30 45 0 6 18 30 40 54 22 23 40 49 40 57 0 8 5 15 10 15 6 0 10 6 10 13 0 7 8
20 18 29 24 23 42 46 42 54 0 3 10 19 23 34 12 15 29 37 37 50 8 12 23 33 33
45 9 13 17 28 17 35 0 6 16 28 35 48 19 20 35 42 35 48 0 6 11 23 24 37 13 14
35 45 48 69 12 24 26 45 29 48 4 3 27 37 52 75 26 39 50 75 55 81 5 5 15 21
22 34 7 13 17 29 22 34 4 6 17 22 28 35 11 13 20 30 20 37 0 7 11 25 25 40 14
15 25 32 25 38 0 6 14 26 30 45 17 18 37 47 45 64 15 32 36 68 45 77 3 3 11
16 18 30 7 14 24 43 37 65 13 22 44 78 68 125 24 47 51 99 60 115 9 17 17 36
17 43 0 6 4 12 10 12 5 0 13 12 16 27 4 15 13 34 21 41 7 7 13 22 13 33 0 10
3 19 8 19 4 0 21 26 37 58 17 31 33 59 36 62 4 3 10 16 14 30 4 14 19 42 31
62 13 21 24 44 24 52 0 8 5 18 10 21 11 7 180 348 180 363 0 6 4 12 8 14 11 4
52 86 52 103 0 8 4 15 8 15 4 0 13 12 20 28 7 15 32 65 57 112 25 47 45 91 45
98 0 6 4 12 9 12 5 0 12 13 16 30 4 16 10 30 13 30 8 0 52 92 52 108 0 5 7 15
15 22 8 7 15 20 15 30 0 10 7 23 15 30 8 7 15 21 15 31 0 9 6 24 13 31 7 7 21
31 31 53 10 22 32 66 47 99 16 32 29 64 29 72 0 8 5 14 10 14 6 0 10 5 10 11
0 6 9 23 19 38 11 15 23 39 26 54 4 15 11 27 16 27 5 0 9 6 9 13 0 7 6 22 14
32 13 18 13 16 6 -20 -4 -22 -12 -51 -18 -65 -5 -14 -15 -45 -22 -70 -6 -25
-21 -72 -32 -105 -11 -33 -24 -78 -30 -100 -5 -22 -13 -48 -18 -57 -6 -9 -13
-35 -16 -58 -4 -22 -10 -40 -15 -40 -5 0 -11 -22 -15 -50 -4 -27 -10 -50 -15
-50 -4 0 -11 -20 -15 -45 -3 -25 -10 -47 -14 -50 -4 -3 -14 -29 -20 -57 -7
-29 -16 -57 -20 -63 -4 -5 -11 -36 -14 -67 -4 -32 -11 -60 -16 -63 -4 -3 -11
-32 -15 -65 -4 -33 -11 -62 -15 -65 -5 -3 -12 -31 -16 -62 -3 -31 -13 -67 -20
-82 -7 -14 -16 -52 -20 -84 -4 -31 -10 -60 -15 -62 -4 -3 -11 -34 -14 -70 -4
-36 -11 -68 -15 -70 -5 -3 -12 -34 -15 -70 -4 -36 -11 -65 -15 -65 -4 0 -11
-35 -15 -77 -4 -43 -10 -82 -15 -88 -8 -10 -14 -36 -30 -115 -5 -25 -16 -76
-24 -115 -27 -134 -46 -248 -46 -276 0 -16 -4 -29 -9 -29 -4 0 -11 -30 -15
-66 -4 -36 -13 -76 -20 -87 -8 -12 -17 -52 -21 -89 -3 -37 -10 -70 -15 -73 -4
-2 -11 -39 -15 -80 -4 -41 -10 -75 -15 -75 -4 0 -11 -36 -14 -80 -4 -44 -11
-80 -16 -80 -4 0 -11 -34 -15 -75 -4 -42 -13 -88 -21 -103 -7 -15 -16 -55 -20
-87 -4 -33 -10 -65 -15 -70 -4 -6 -11 -42 -15 -80 -4 -39 -10 -74 -14 -80 -5
-5 -11 -45 -15 -87 -4 -43 -11 -78 -15 -78 -4 0 -11 -37 -15 -81 -3 -45 -10
-89 -15 -98 -24 -45 -30 -160 -30 -555 l0 -421 45 -43 c41 -38 50 -42 96 -42
47 0 106 22 146 55 7 6 19 16 27 23 8 6 22 12 29 12 8 0 20 7 27 15 7 8 18 15
25 15 21 0 188 172 237 245 15 22 49 63 75 91 26 28 55 61 63 73 8 13 28 37
43 55 16 17 40 48 54 68 14 21 30 38 34 38 5 0 9 5 9 11 0 6 16 27 35 48 57
58 105 115 105 124 0 9 3 12 57 72 20 22 62 74 94 115 32 41 65 82 74 91 8 9
15 19 15 23 0 4 16 24 36 44 20 20 56 64 80 97 24 33 51 67 59 76 8 9 15 19
15 23 0 4 13 19 30 32 16 14 45 52 65 85 20 32 40 59 44 59 3 0 15 15 26 33
10 17 31 45 47 60 15 16 28 35 28 42 0 8 21 36 48 62 26 27 56 67 67 88 11 21
34 52 50 69 17 17 39 49 50 70 11 22 27 48 35 58 8 10 24 34 35 52 11 19 39
62 63 96 23 34 42 71 42 81 0 10 6 22 13 26 8 4 27 33 43 63 16 30 32 57 37
58 4 2 7 9 7 17 0 7 7 18 15 25 8 7 15 20 15 30 0 10 6 23 14 29 8 7 18 26 21
42 4 16 10 29 15 29 11 0 60 96 60 116 0 8 4 14 9 14 5 0 14 14 21 31 7 17 30
57 51 90 21 33 41 70 45 83 3 14 12 27 20 30 8 3 14 14 14 24 0 11 6 25 14 31
8 6 20 26 27 44 7 18 24 42 36 53 13 12 23 28 23 35 0 8 9 28 20 44 11 17 20
38 20 48 0 9 4 17 9 17 5 0 22 21 37 48 15 26 31 49 35 52 4 3 10 17 14 32 4
15 13 29 21 32 8 3 14 15 14 26 0 11 5 20 10 20 6 0 10 6 10 13 0 8 9 25 21
38 12 13 25 33 30 44 5 11 19 36 30 55 12 19 35 60 51 90 17 30 34 57 37 60 4
3 18 26 31 53 13 26 27 47 31 47 4 0 10 13 14 30 4 16 10 30 15 30 5 0 12 10
16 23 4 12 19 38 34 57 15 19 30 45 34 58 4 12 11 22 16 22 4 0 11 15 14 34 4
19 13 37 21 40 8 3 15 17 15 31 0 14 6 25 13 25 8 0 24 21 37 48 13 26 30 53
37 60 7 7 13 22 13 31 0 10 7 24 15 31 8 7 15 19 15 28 0 8 8 22 19 31 10 9
33 45 50 81 49 101 74 145 94 164 9 10 17 26 17 37 0 10 4 19 10 19 5 0 13 12
16 27 4 15 12 33 18 40 30 34 36 43 36 56 0 8 9 26 20 40 11 14 20 29 20 35 0
5 9 17 20 27 11 10 20 25 20 34 0 9 7 25 15 35 8 11 15 28 15 38 0 10 4 18 10
18 5 0 13 12 16 26 4 15 15 35 24 44 10 10 34 50 55 91 20 41 41 78 46 84 5 5
9 16 9 25 0 8 9 23 20 33 11 9 20 23 20 30 0 8 9 24 20 37 11 13 20 29 20 37
0 8 7 21 15 29 8 9 15 24 15 35 0 10 5 19 10 19 6 0 10 6 10 13 0 8 9 22 20
32 11 10 20 22 20 27 0 6 9 21 20 35 11 14 20 32 20 40 0 8 7 21 15 29 8 9 15
24 15 34 0 10 7 20 15 24 8 3 15 10 15 15 0 6 13 29 29 53 16 24 31 53 35 65
4 11 13 27 21 33 8 7 15 23 15 36 0 13 4 24 9 24 10 0 71 103 71 120 0 5 9 19
20 30 11 11 20 15 20 10 0 -6 -9 -27 -20 -47 -11 -21 -20 -48 -20 -60 0 -13
-4 -23 -10 -23 -5 0 -13 -12 -16 -27 -4 -16 -11 -33 -16 -40 -18 -22 -47 -85
-53 -114 -4 -16 -11 -29 -16 -29 -5 0 -9 -8 -9 -17 -1 -10 -9 -36 -20 -58 -11
-22 -19 -50 -20 -62 0 -13 -5 -23 -10 -23 -9 0 -15 -10 -40 -75 -9 -22 -38
-89 -64 -147 -9 -20 -16 -45 -16 -57 0 -12 -4 -21 -8 -21 -10 0 -62 -113 -62
-133 0 -7 -7 -22 -15 -33 -8 -10 -15 -26 -15 -34 0 -8 -7 -28 -15 -43 -8 -15
-17 -44 -21 -64 -4 -20 -15 -44 -25 -54 -11 -11 -19 -28 -19 -39 0 -11 -4 -20
-9 -20 -5 0 -11 -18 -15 -40 -3 -22 -10 -40 -15 -40 -5 0 -12 -21 -16 -47 -4
-27 -10 -50 -13 -53 -9 -6 -40 -93 -53 -145 -6 -22 -14 -47 -19 -56 -4 -9 -11
-41 -15 -72 -4 -32 -11 -57 -15 -57 -5 0 -12 -25 -15 -55 -4 -30 -11 -58 -16
-60 -4 -3 -11 -26 -15 -50 -3 -25 -10 -45 -14 -45 -4 0 -13 -26 -20 -57 -8
-32 -20 -69 -27 -83 -7 -14 -13 -36 -13 -50 0 -15 -4 -30 -9 -35 -6 -6 -14
-28 -20 -50 -26 -103 -34 -132 -47 -161 -7 -17 -19 -54 -25 -83 -6 -28 -14
-53 -19 -56 -5 -3 -12 -30 -15 -60 -4 -30 -11 -55 -16 -55 -4 0 -11 -23 -15
-50 -4 -28 -10 -50 -15 -50 -4 0 -11 -21 -15 -47 -4 -26 -13 -53 -20 -60 -6
-7 -15 -32 -19 -55 -4 -24 -11 -47 -15 -53 -4 -5 -11 -28 -15 -50 -4 -22 -10
-44 -15 -50 -4 -5 -11 -32 -15 -60 -4 -27 -11 -53 -16 -56 -5 -3 -12 -29 -16
-57 -3 -29 -9 -52 -14 -52 -5 0 -14 -19 -20 -42 -7 -24 -16 -47 -20 -53 -4 -5
-10 -30 -14 -55 -4 -25 -11 -50 -16 -56 -5 -6 -13 -31 -19 -55 -21 -96 -37
-155 -49 -184 -22 -50 -68 -213 -84 -297 -6 -32 -14 -58 -18 -58 -5 0 -11 -27
-15 -60 -4 -33 -10 -60 -14 -60 -11 0 -30 -58 -30 -91 0 -15 -4 -30 -9 -34 -6
-3 -13 -27 -17 -53 -3 -26 -10 -51 -14 -57 -4 -5 -11 -35 -15 -65 -4 -30 -11
-59 -15 -65 -4 -5 -10 -83 -14 -171 -4 -105 -11 -172 -20 -190 -8 -16 -19 -92
-25 -169 -6 -77 -15 -189 -20 -250 -5 -60 -10 -236 -10 -390 l-1 -281 48 -47
48 -47 96 0 c80 0 103 4 132 21 20 12 36 24 36 28 0 4 20 18 45 30 25 12 45
27 45 32 0 5 5 9 11 9 14 0 34 18 161 143 55 53 103 97 106 97 10 0 92 74 92
83 0 9 38 47 46 47 11 0 84 77 84 89 0 6 7 11 16 11 19 0 240 209 271 257 8
12 20 23 25 23 13 0 77 71 84 93 6 21 40 57 51 57 9 0 83 82 83 92 0 5 9 18
19 30 11 13 29 34 40 47 12 13 21 27 21 31 0 5 19 29 43 54 23 25 58 67 77 93
19 27 47 61 63 78 15 16 30 40 33 52 4 13 11 23 18 23 16 0 48 37 85 98 18 28
36 52 41 52 5 0 30 29 56 65 26 36 51 65 56 65 4 0 8 6 8 14 0 7 16 33 35 57
31 39 35 51 35 102 0 54 -3 61 -38 98 -38 38 -41 39 -107 39 l-68 0 -48 -51
c-27 -27 -49 -55 -49 -60 0 -6 -6 -16 -12 -24 -7 -7 -35 -43 -63 -80 -76 -101
-135 -175 -167 -207 -15 -16 -28 -35 -28 -43 0 -8 -6 -15 -12 -15 -7 0 -24
-17 -38 -38 -14 -20 -31 -43 -37 -50 -7 -7 -13 -18 -13 -23 0 -9 -36 -49 -45
-49 -10 0 -40 -37 -80 -96 -22 -32 -45 -63 -51 -69 -6 -5 -33 -39 -60 -74 -55
-71 -618 -640 -679 -686 -22 -16 -65 -54 -95 -85 -30 -30 -71 -63 -90 -74 -19
-10 -39 -24 -43 -30 -5 -6 -6 88 -3 208 4 121 10 224 15 230 5 6 12 49 15 96
3 47 10 117 16 155 6 39 15 139 20 224 5 85 14 159 20 165 5 5 10 26 10 45 1
20 7 54 15 76 8 22 18 63 21 90 4 28 11 55 15 61 5 6 12 33 15 60 4 27 13 53
20 57 7 4 16 30 20 58 4 27 10 52 15 55 5 2 11 27 15 55 4 27 10 52 15 55 5 2
11 27 15 55 4 27 10 52 15 54 4 3 11 27 15 53 4 26 13 56 20 67 7 11 18 40 23
65 6 25 20 77 32 115 11 39 25 93 30 120 6 28 15 54 20 59 5 6 9 21 9 35 0 15
9 41 20 59 11 17 23 51 26 75 4 23 10 47 14 52 4 6 11 26 15 45 4 19 11 40 15
45 4 6 11 31 14 57 4 27 11 48 16 48 5 0 12 25 15 55 4 30 11 55 16 55 4 0 13
19 19 43 6 23 15 51 20 62 5 11 12 39 15 62 4 24 11 45 15 48 5 3 12 27 16 53
3 26 10 52 14 57 5 6 12 28 16 50 4 22 13 49 20 60 6 11 15 36 19 55 4 19 10
40 14 45 3 6 12 30 19 55 23 80 49 174 66 234 9 33 21 65 26 71 5 6 12 31 16
55 4 25 10 50 15 55 4 6 11 31 15 55 4 25 10 50 14 55 4 6 10 30 14 55 4 24
11 49 15 55 5 5 11 32 15 59 3 27 12 57 19 65 8 9 24 48 36 86 12 39 29 84 37
102 8 17 14 38 14 46 0 9 4 18 9 21 5 3 12 20 15 38 3 18 22 65 41 103 19 39
35 76 35 83 0 7 4 20 10 30 13 23 50 110 50 116 0 3 15 37 34 76 19 38 38 85
41 103 4 17 14 41 21 52 8 11 14 27 14 37 0 10 5 18 10 18 6 0 10 8 10 17 0
17 49 123 61 133 4 3 10 20 14 38 3 17 10 32 15 32 4 0 11 15 14 34 6 33 27
85 47 116 9 15 24 46 40 85 10 26 48 115 59 140 5 11 27 60 49 108 23 49 41
94 41 101 0 6 6 21 14 32 8 11 17 37 21 57 4 20 11 37 15 37 4 0 13 12 19 28
6 15 15 34 20 42 20 35 51 108 51 124 0 9 5 16 10 16 6 0 10 5 10 11 0 15 41
110 60 139 17 27 50 108 50 124 0 9 4 16 10 16 5 0 13 18 16 40 4 22 10 40 15
40 4 0 11 10 14 23 4 12 23 56 42 97 46 100 57 125 83 190 12 30 28 62 36 71
8 8 14 25 14 37 0 11 4 23 9 26 11 7 46 79 56 116 4 14 14 34 21 45 8 11 14
27 14 36 0 9 6 22 14 28 8 7 18 26 21 42 4 16 10 29 15 29 5 0 12 15 15 33 4
17 14 41 21 52 8 11 14 27 14 37 0 10 5 18 10 18 6 0 10 7 10 16 0 8 9 32 20
52 33 63 80 164 112 242 17 41 34 77 38 80 11 9 50 90 50 104 0 7 7 19 15 26
8 7 15 19 15 27 0 8 23 36 50 64 28 27 50 56 50 64 0 8 5 15 10 15 6 0 10 5
10 11 0 11 34 82 81 169 16 30 29 62 29 72 0 10 4 18 9 18 5 0 19 15 30 34 16
26 21 50 21 108 0 71 -1 76 -33 106 -30 29 -38 32 -97 32 l-64 0 -78 -82 c-43
-45 -78 -87 -78 -95 0 -7 -4 -13 -10 -13 -5 0 -12 -11 -16 -24 -3 -14 -12 -27
-19 -30 -7 -2 -23 -25 -36 -50 -12 -25 -26 -46 -30 -46 -4 0 -10 -13 -14 -30
-4 -16 -10 -30 -15 -30 -5 0 -12 -10 -16 -22 -6 -20 -39 -73 -54 -88 -13 -13
-50 -91 -50 -104 0 -9 -4 -16 -9 -16 -13 0 -91 -123 -91 -143 0 -9 -4 -17 -9
-17 -6 0 -22 -24 -36 -52 -15 -29 -33 -57 -41 -61 -8 -4 -14 -14 -14 -21 0 -7
-9 -23 -20 -36 -11 -13 -20 -32 -20 -42 0 -10 -11 -29 -23 -41 -13 -12 -27
-34 -31 -49 -3 -16 -10 -28 -15 -28 -11 0 -91 -134 -91 -153 0 -8 -7 -17 -15
-21 -8 -3 -15 -12 -15 -21 0 -8 -4 -15 -9 -15 -5 0 -11 -8 -15 -17 -3 -10 -19
-40 -36 -68 -16 -27 -40 -70 -52 -95 -13 -25 -28 -48 -34 -52 -6 -4 -17 -21
-24 -38 -7 -16 -16 -30 -20 -30 -5 0 -11 -13 -15 -30 -4 -16 -11 -30 -16 -30
-5 0 -9 -7 -9 -15 0 -9 -6 -18 -14 -21 -8 -3 -17 -16 -20 -30 -4 -13 -15 -33
-26 -44 -11 -11 -20 -27 -20 -35 0 -9 -11 -28 -25 -42 -13 -15 -27 -39 -30
-54 -4 -15 -13 -30 -21 -33 -8 -3 -14 -14 -14 -25 0 -10 -14 -33 -30 -51 -16
-18 -30 -38 -30 -45 0 -6 -9 -22 -20 -35 -11 -13 -20 -31 -20 -42 0 -10 -4
-18 -8 -18 -5 0 -17 -18 -27 -40 -10 -22 -21 -40 -25 -40 -4 0 -18 -22 -31
-50 -13 -27 -27 -50 -31 -50 -3 0 -9 -13 -13 -29 -3 -16 -13 -32 -21 -35 -8
-3 -14 -18 -14 -35 0 -19 -6 -30 -18 -33 -10 -3 -35 -40 -57 -82 -44 -85 -48
-92 -88 -153 -15 -24 -27 -47 -27 -52 0 -5 -6 -14 -14 -20 -8 -7 -18 -26 -21
-42 -4 -16 -10 -29 -15 -29 -5 0 -12 -10 -16 -22 -4 -13 -9 -25 -13 -28 -7 -6
-18 -25 -68 -118 -19 -37 -39 -71 -44 -76 -5 -6 -9 -17 -9 -26 0 -9 -8 -24
-17 -33 -10 -9 -29 -37 -43 -64 -14 -26 -28 -50 -32 -53 -3 -3 -10 -18 -13
-33 -4 -15 -11 -27 -16 -27 -5 0 -9 -5 -9 -11 0 -7 -15 -35 -33 -63 -19 -28
-45 -73 -58 -101 -13 -27 -27 -51 -31 -53 -5 -2 -8 -8 -8 -13 0 -9 -31 -64
-87 -157 -12 -21 -22 -45 -23 -54 0 -10 -4 -18 -9 -18 -4 0 -24 -30 -42 -67
-19 -38 -40 -74 -46 -81 -7 -7 -13 -20 -13 -28 0 -8 -4 -14 -9 -14 -5 0 -12
-13 -16 -30 -4 -16 -11 -30 -16 -30 -5 0 -9 -6 -9 -14 0 -8 -6 -21 -14 -28
-18 -18 -66 -109 -66 -125 0 -7 -4 -13 -8 -13 -8 0 -52 -80 -52 -94 0 -4 -8
-15 -18 -26 -9 -10 -44 -71 -77 -134 -33 -64 -62 -116 -65 -116 -4 0 -24 -35
-45 -77 -21 -43 -42 -80 -45 -83 -4 -3 -11 -16 -15 -30 -4 -14 -14 -29 -21
-35 -7 -5 -23 -30 -35 -55 -13 -25 -26 -47 -29 -50 -3 -3 -16 -25 -29 -50 -13
-25 -27 -47 -31 -50 -11 -8 -60 -103 -60 -117 0 -7 -4 -13 -9 -13 -5 0 -19
-21 -32 -47 -12 -27 -37 -69 -56 -96 -18 -26 -33 -53 -33 -61 0 -7 -7 -19 -15
-26 -8 -6 -17 -20 -20 -31 -6 -18 -59 -102 -90 -144 -8 -10 -15 -27 -15 -36 0
-9 -7 -19 -15 -23 -8 -3 -15 -12 -15 -21 0 -8 -4 -15 -10 -15 -5 0 -10 -9 -10
-19 0 -11 -6 -26 -14 -33 -7 -8 -21 -27 -30 -43 -9 -17 -28 -48 -41 -70 -14
-22 -33 -56 -43 -75 -9 -19 -19 -37 -22 -40 -16 -15 -54 -77 -95 -156 -58
-111 -78 -148 -86 -154 -4 -3 -10 -16 -14 -30 -4 -13 -14 -30 -21 -38 -8 -7
-14 -22 -14 -33 0 -10 -4 -19 -9 -19 -5 0 -14 -12 -20 -27 -15 -36 -59 -114
-75 -133 -8 -8 -16 -27 -20 -42 -3 -16 -10 -28 -15 -28 -5 0 -12 -14 -16 -30
-4 -17 -10 -30 -14 -30 -4 0 -14 -12 -22 -27 -7 -16 -24 -42 -36 -58 -12 -17
-26 -41 -32 -55 -12 -27 -33 -62 -42 -70 -14 -13 -87 -127 -93 -148 -4 -13
-23 -38 -42 -57 -19 -19 -34 -39 -34 -45 0 -6 -18 -30 -40 -53 -23 -23 -43
-52 -47 -64 -3 -13 -8 -23 -12 -23 -9 0 -91 -107 -91 -119 0 -6 -4 -11 -9 -11
-4 0 -20 -18 -34 -40 -15 -21 -47 -61 -72 -87 -24 -26 -45 -53 -45 -59 0 -6
-11 -21 -25 -34 -14 -13 -25 -27 -25 -32 0 -10 -8 -20 -77 -96 -29 -31 -53
-63 -53 -69 0 -7 -4 -13 -8 -13 -5 0 -25 -24 -45 -52 -20 -29 -51 -69 -70 -88
-18 -19 -53 -62 -78 -95 -24 -32 -55 -71 -69 -86 -38 -42 -50 -58 -50 -64 0
-4 -22 -29 -50 -56 -27 -28 -52 -59 -55 -70 -4 -10 -11 -19 -16 -19 -5 0 -9
-5 -9 -11 0 -6 -15 -27 -34 -48 -93 -99 -136 -149 -136 -156 0 -4 -25 -36 -55
-70 -30 -35 -55 -68 -55 -74 0 -6 -4 -11 -9 -11 -5 0 -11 -9 -14 -20 -3 -11
-10 -20 -16 -20 -19 0 -10 471 11 540 9 30 19 90 23 133 4 42 11 80 16 82 4 3
11 41 15 85 3 44 10 80 15 80 4 0 11 36 15 80 3 44 10 80 14 80 7 0 11 23 27
132 3 21 9 38 13 38 4 0 11 33 15 73 4 39 11 77 16 82 4 6 11 42 15 80 4 39
10 75 15 80 4 6 11 41 15 78 4 37 11 70 15 73 5 3 9 20 9 38 0 18 7 55 16 82
9 27 22 85 30 129 32 178 43 232 53 270 6 22 11 57 11 78 0 20 4 37 9 37 5 0
12 30 16 68 4 37 11 72 15 77 4 6 13 37 19 70 21 106 43 209 52 237 4 15 13
70 20 123 8 52 17 95 21 95 4 0 8 12 8 28 0 15 9 51 19 79 10 29 22 76 26 105
4 29 11 59 16 68 4 8 13 40 18 70 12 62 35 158 43 180 4 8 9 31 12 50 3 19 13
48 22 65 8 16 18 48 21 72 3 24 9 43 13 43 5 0 11 18 15 40 4 22 10 42 15 45
4 3 11 28 15 55 4 27 11 52 15 55 5 3 11 23 15 45 4 22 10 42 15 45 4 3 14 29
20 57 7 29 16 58 21 63 4 6 11 31 15 55 4 25 10 50 14 55 4 6 11 26 15 45 4
19 13 49 20 65 7 17 18 50 26 75 7 25 16 50 20 55 4 6 10 27 14 48 4 20 11 39
15 42 5 3 11 23 15 45 4 22 10 42 15 45 5 3 11 23 15 45 4 22 11 42 16 46 5 3
9 13 9 22 0 9 11 40 25 67 13 28 25 58 25 67 0 9 4 19 9 22 5 4 12 29 16 56 4
28 10 50 15 50 4 0 10 17 14 39 3 21 13 51 21 67 8 16 15 39 15 52 0 12 4 22
9 22 5 0 15 17 21 38 6 20 18 51 26 69 8 17 14 38 14 46 0 9 4 18 9 22 6 3 13
26 17 50 3 25 10 45 14 45 5 0 11 18 15 40 4 22 11 42 16 46 5 3 9 14 9 25 0
10 5 19 10 19 6 0 10 8 10 18 0 10 7 27 15 38 8 10 15 26 15 34 0 8 7 28 15
44 8 16 18 46 21 67 4 22 10 39 15 39 5 0 9 8 9 18 0 11 9 29 19 41 11 13 23
37 27 54 3 17 10 38 15 47 20 36 49 110 49 124 0 9 4 16 9 16 5 0 12 15 15 34
4 19 13 39 21 46 8 7 15 18 15 24 0 6 13 37 29 68 16 32 32 72 36 90 4 18 14
42 21 53 8 11 14 27 14 36 0 10 4 19 8 21 5 2 22 37 40 78 17 41 38 89 46 105
9 17 16 40 16 53 0 12 5 22 10 22 6 0 10 8 10 18 0 11 9 29 20 42 11 13 20 28
20 34 0 6 9 28 20 49 11 20 20 46 20 57 0 11 5 20 10 20 6 0 10 8 10 18 0 9 9
31 20 47 11 17 20 40 20 53 0 12 5 22 10 22 6 0 15 12 21 28 20 48 27 66 48
114 12 26 21 53 21 61 0 8 7 20 15 27 8 7 15 22 15 34 0 11 9 32 20 46 11 14
20 32 20 40 0 8 7 24 15 34 8 11 15 28 15 38 0 10 4 18 8 18 4 0 13 20 21 44
7 24 28 73 47 110 19 37 34 74 34 82 0 9 7 22 15 30 8 9 15 24 15 35 0 10 4
19 9 19 5 0 12 16 15 35 4 19 11 35 16 35 6 0 10 6 10 13 0 6 22 57 49 112 27
55 59 124 72 153 13 28 27 52 31 52 5 0 8 5 8 12 0 6 12 26 26 45 14 19 48 77
75 131 43 86 49 104 49 162 0 62 -1 66 -42 107 -41 42 -44 43 -105 43 -63 0
-64 -1 -113 -50z m1661 -2927 c-12 -20 -14 -14 -5 12 4 9 9 14 11 11 3 -2 0
-13 -6 -23z m-3459 -1355 c-8 -8 -9 -4 -5 13 4 13 8 18 11 10 2 -7 -1 -18 -6
-23z"/>
</g>
</svg>
